<?xml version="1.0" encoding="utf-8"?>
<!-- Generator: Adobe Illustrator 28.0.0, SVG Export Plug-In . SVG Version: 6.00 Build 0)  -->
<svg version="1.1" id="Layer_2_00000139983730832775323700000009362288832129480893_"
	 xmlns="http://www.w3.org/2000/svg" xmlns:xlink="http://www.w3.org/1999/xlink" x="0px" y="0px" viewBox="0 0 273.3 273.3"
	 style="enable-background:new 0 0 273.3 273.3;" xml:space="preserve">
<style type="text/css">
	.st0{fill:#FFFFFF;}
</style>
<rect width="273.3" height="273.3"/>
<g id="Layer_1_1_">
	<path id="Path_1" class="st0" d="M34.3,113.7h13.2c9.7,0,16,7.1,16,18s-6.2,18.9-16.3,18.9H34.3V113.7z M41.5,144.2h5.4
		c6.4,0,9.2-5.3,9.2-12.5c0-6.1-2.6-11.6-9.1-11.6h-5.4V144.2z"/>
	<path id="Path_2" class="st0" d="M73.9,138.4c0,3.5,1.8,6.9,5.6,6.9c3.2,0,4.1-1.3,4.9-2.9H92c-1,3.4-4,9-12.7,9
		c-9.2,0-13.1-6.8-13.1-14.1c0-8.7,4.4-15,13.4-15c9.5,0,12.8,6.9,12.8,13.8c0,0.8,0,1.6,0,2.4H73.9z M84.6,133.7c0-3.2-1.4-6-5.1-6
		s-5.2,2.5-5.5,6H84.6z"/>
	<path id="Path_3" class="st0" d="M101.3,139.8c0.8,3.7,3.1,5.4,6.9,5.4c3.8,0,5.5-1.7,5.5-4.4c0-3.1-1.6-4.3-7.3-5.8
		c-9-2.4-11.3-6.1-11.3-11c0-6.4,4.3-10.8,12.2-10.8c8.8,0,12.3,5.3,12.8,10.7H113c-0.4-2.3-1.5-4.8-5.8-4.8c-2.9,0-4.7,1.4-4.7,4
		s1.4,3.6,6.8,5c9.7,2.6,11.7,6.5,11.7,11.8c0,6.7-4.6,11.4-13.3,11.4c-8.4,0-12.9-4.6-13.7-11.4L101.3,139.8z"/>
	<path id="Path_4" class="st0" d="M150.9,136.7c0,8.4-5.1,14.6-13.8,14.6c-8.6,0-13.6-6.2-13.6-14.4c0-8.6,5.2-14.6,14-14.6
		C145.6,122.2,150.9,128,150.9,136.7z M131.2,136.7c0,5.4,2.3,8.5,6,8.5s5.9-3.2,5.9-8.5c0-5.8-2.2-8.5-6-8.5
		C133.6,128.3,131.2,130.9,131.2,136.7L131.2,136.7z"/>
	<path id="Path_5" class="st0" d="M154.6,161.3v-38.5h7.5c0.1,0.8,0.3,2.5,0.3,3.5c1.7-2.8,4.8-4.4,8-4.1c6.3,0,11,5.3,11,13.8
		c0,9.8-5.4,15.2-12.1,15.2c-3.9,0-6-1.5-7-3.1v13.1L154.6,161.3z M167.8,128.4c-4.3,0-5.9,2.8-5.9,8.4c0,5.3,1.4,8.4,5.5,8.4
		c4.1,0,6.1-3.2,6.1-8.8C173.6,131.3,171.5,128.4,167.8,128.4L167.8,128.4z"/>
	<path id="Path_6" class="st0" d="M192.8,111.5v14.7c1.7-2.7,4.8-4.2,8-4c5.1,0,9.3,3.1,9.3,10.6v17.8h-7.6V134
		c0-3.6-1.3-5.5-4.5-5.5c-4.3,0-5.1,3.2-5.1,7.5v14.8h-7.7v-39.2H192.8z"/>
	<path id="Path_7" class="st0" d="M220,122.8c2.8,9.7,5.4,18.1,5.8,20.7l0,0c0.6-2.8,2.3-9,5.5-20.7h7.7l-9.3,28.7
		c-2.6,8-4.9,10.4-11.5,10.4c-1.2,0-2.4-0.1-3.6-0.2v-6.2c0.5,0,1.4,0.1,2,0.1c2.8,0,4.2-1,5.3-4l-10.1-28.7H220z"/>
</g>
</svg>
