<svg xmlns="http://www.w3.org/2000/svg" width="24.508" height="24.501" viewBox="0 0 24.508 24.501">
  <g id="google" transform="translate(-0.001)">
    <path id="Path_32" data-name="Path 32" d="M1969.651,1175.707a1.484,1.484,0,0,0,2.913-.426q.007-.816,0-1.633a1.556,1.556,0,0,0-.05-.391,1.446,1.446,0,0,0-1.031-1.058c-.072-.023-.146-.039-.219-.057h-.367c-.035.007-.07.013-.1.021a1.5,1.5,0,0,0-1.2,1.463c0,.558,0,1.116,0,1.673a1.7,1.7,0,0,0,.058.406" transform="translate(-1958.818 -1172.143)" fill="#f3f1ec"/>
    <path id="Path_33" data-name="Path 33" d="M2000.108,1198.7a1.492,1.492,0,0,0-2.52-.614,1.314,1.314,0,0,0-.387.884c-.012.6-.009,1.2-.01,1.806a1.457,1.457,0,0,0,.018.224,1.486,1.486,0,0,0,2.9.145c.021-.07.034-.143.05-.214v-2.021c-.018-.07-.037-.14-.055-.21" transform="translate(-1975.653 -1187.679)" fill="#f3f1ec"/>
    <path id="Path_34" data-name="Path 34" d="M1969.589,1194.247q0,2.2,0,4.409a1.936,1.936,0,0,0,.055.448,1.483,1.483,0,0,0,2.915-.4q.007-4.456,0-8.91a1.6,1.6,0,0,0-.111-.563,1.481,1.481,0,0,0-2.852.478c-.018,1.514-.005,3.028-.005,4.542Z" transform="translate(-1958.818 -1181.999)" fill="#f3f1ec"/>
    <path id="Path_35" data-name="Path 35" d="M1955.806,1191.622a1.907,1.907,0,0,0,.043.41,1.481,1.481,0,0,0,2.92-.344q.008-2.75,0-5.5a1.513,1.513,0,0,0-.105-.541,1.464,1.464,0,0,0-1.666-.9,1.482,1.482,0,0,0-1.193,1.469c.006.905,0,1.81,0,2.715s0,1.8,0,2.695" transform="translate(-1950.411 -1179.811)" fill="#f3f1ec"/>
    <path id="Path_36" data-name="Path 36" d="M1986.325,1201.882a1.466,1.466,0,0,0-1.5-1.155,1.289,1.289,0,0,0-.618.16,1.44,1.44,0,0,0-.808,1.315c-.008.918,0,1.837,0,2.755,0,.9,0,1.8,0,2.7a1.489,1.489,0,0,0,1.763,1.49,1.48,1.48,0,0,0,1.206-1.5q0-2.7,0-5.408a1.517,1.517,0,0,0-.035-.361" transform="translate(-1967.237 -1189.576)" fill="#f3f1ec"/>
    <path id="Path_37" data-name="Path 37" d="M1944.877,1198.61a1.448,1.448,0,0,0-1.382-.994,1.516,1.516,0,0,0-.8.213,1.387,1.387,0,0,0-.7,1.12c-.034.617-.007,1.237-.008,1.856a1.4,1.4,0,0,0,.123.553,1.5,1.5,0,0,0,1.585.878,1.474,1.474,0,0,0,1.251-1.335c.023-.322,0-.646,0-.969h.009c0-.261.01-.524,0-.785a2.292,2.292,0,0,0-.082-.537" transform="translate(-1941.981 -1187.679)" fill="#f3f1ec"/>
    <path id="Path_38" data-name="Path 38" d="M1972.511,1224.259a1.464,1.464,0,0,0-1.1-1.16,1.5,1.5,0,0,0-1.266.272,1.437,1.437,0,0,0-.565,1.009,8.915,8.915,0,0,0-.006.958h.019a10.088,10.088,0,0,0,.006,1.07,1.462,1.462,0,0,0,1.686,1.27,1.478,1.478,0,0,0,1.266-1.517c0-.5,0-.993,0-1.49a3.072,3.072,0,0,0-.035-.412" transform="translate(-1958.801 -1203.198)" fill="#f3f1ec"/>
    <path id="Path_39" data-name="Path 39" d="M1986.359,1187.039c0-.269,0-.537,0-.806a1.707,1.707,0,0,0-.038-.371,1.465,1.465,0,0,0-1.5-1.149,1.306,1.306,0,0,0-.663.182,1.435,1.435,0,0,0-.766,1.268c-.011.578-.009,1.157,0,1.734a1.557,1.557,0,0,0,.085.473,1.481,1.481,0,0,0,2.876-.464c.011-.289,0-.578,0-.867Z" transform="translate(-1967.234 -1179.809)" fill="#f3f1ec"/>
    <path id="Path_40" data-name="Path 40" d="M1958.743,1211.667a1.479,1.479,0,0,0-2.144-1.018,1.4,1.4,0,0,0-.792,1.267c-.009.3,0,.591,0,.887h0c0,.268,0,.538,0,.806a1.839,1.839,0,0,0,.047.4,1.482,1.482,0,0,0,2.917-.367c.006-.565,0-1.129,0-1.694a1.377,1.377,0,0,0-.027-.281" transform="translate(-1950.41 -1195.523)" fill="#f3f1ec"/>
  </g>
</svg>
