<svg xmlns="http://www.w3.org/2000/svg" xmlns:xlink="http://www.w3.org/1999/xlink" width="159.98" height="128.801" viewBox="0 0 159.98 128.801">
  <defs>
    <clipPath id="clip-path">
      <rect width="7.114" height="10.971" fill="none"/>
    </clipPath>
  </defs>
  <g id="Group_265" data-name="Group 265" transform="translate(-101.321 -102.51)">
    <g id="Repeat_Grid_2" data-name="Repeat Grid 2" transform="translate(101.321 217.5)" clip-path="url(#clip-path)">
      <g transform="translate(-101.319 -217.5)">
        <path id="Path_1" data-name="Path 1" d="M401.6,221.543a3.145,3.145,0,0,0-1.076-.9,3.3,3.3,0,0,0-1.532-.337,3.572,3.572,0,0,0-1.577.367,2.77,2.77,0,0,0-1.188,1.083V217.5h-.9v10.761h.9V226.9h.029a2.441,2.441,0,0,0,.5.68,3.032,3.032,0,0,0,.673.486,3.576,3.576,0,0,0,.755.3,2.956,2.956,0,0,0,.762.1,3.691,3.691,0,0,0,1.6-.314,2.99,2.99,0,0,0,1.084-.86,3.5,3.5,0,0,0,.62-1.293,6.358,6.358,0,0,0,.194-1.6,5.727,5.727,0,0,0-.209-1.555,3.855,3.855,0,0,0-.635-1.307m-.314,4.379a2.746,2.746,0,0,1-.561.949,2.407,2.407,0,0,1-.836.591,2.677,2.677,0,0,1-1.047.2,2.407,2.407,0,0,1-1.121-.254,2.36,2.36,0,0,1-.822-.695,3.173,3.173,0,0,1-.5-1.046,4.755,4.755,0,0,1-.172-1.308,4.26,4.26,0,0,1,.179-1.248,3.23,3.23,0,0,1,.516-1.031,2.538,2.538,0,0,1,.822-.7,2.281,2.281,0,0,1,1.1-.261,2.517,2.517,0,0,1,1.2.276,2.376,2.376,0,0,1,.844.755,3.275,3.275,0,0,1,.478,1.114,5.032,5.032,0,0,1,.12,1.367,3.82,3.82,0,0,1-.2,1.293" transform="translate(-294.01)" fill="#303030"/>
      </g>
    </g>
    <path id="Path_139" data-name="Path 139" d="M408.527,227.17l-2.481-6.651h-1l3.005,7.79a3.241,3.241,0,0,0-.24.62,4.737,4.737,0,0,1-.261.7,2.026,2.026,0,0,1-.4.575.832.832,0,0,1-.613.238,2.513,2.513,0,0,1-.381-.029l-.366-.06v.852a3.966,3.966,0,0,0,.4.074,3.316,3.316,0,0,0,.456.03,1.439,1.439,0,0,0,.8-.217,2.148,2.148,0,0,0,.613-.627,5.933,5.933,0,0,0,.523-.994q.247-.584.516-1.315l2.885-7.638h-.972Z" transform="translate(-294.008)" fill="#303030"/>
    <path id="Path_140" data-name="Path 140" d="M429.027,220.436a5.538,5.538,0,0,0-.546-1.18,3.273,3.273,0,0,0-.882-.95,3.866,3.866,0,0,0-.77-.433,4.243,4.243,0,0,0-.814-.247,6.159,6.159,0,0,0-.852-.1q-.434-.022-.882-.023H420.6v10.762h3.677a10.615,10.615,0,0,0,1.061-.053,5.541,5.541,0,0,0,1.009-.194,4.164,4.164,0,0,0,.927-.4,3.315,3.315,0,0,0,.814-.673,3.889,3.889,0,0,0,.62-.889,5.563,5.563,0,0,0,.4-1.016,7.172,7.172,0,0,0,.216-1.084,8.991,8.991,0,0,0,.068-1.091,9.323,9.323,0,0,0-.082-1.173,7.075,7.075,0,0,0-.284-1.256m-.733,3.58a5.373,5.373,0,0,1-.284,1.143,4,4,0,0,1-.545,1.009,2.456,2.456,0,0,1-.882.733,3.764,3.764,0,0,1-1.233.411,9.6,9.6,0,0,1-1.293.082H421.62v-9.028h2.437a11.742,11.742,0,0,1,1.33.075,3.162,3.162,0,0,1,1.136.329,2.846,2.846,0,0,1,.927.754,3.828,3.828,0,0,1,.567,1,4.849,4.849,0,0,1,.285,1.151,9.837,9.837,0,0,1,.074,1.188,8.414,8.414,0,0,1-.082,1.151" transform="translate(-294.008)" fill="#303030"/>
    <path id="Path_141" data-name="Path 141" d="M438.42,221.407a3.09,3.09,0,0,0-2.511-1.1,3.365,3.365,0,0,0-1.495.321,3.253,3.253,0,0,0-1.114.881,4.063,4.063,0,0,0-.7,1.309,5.081,5.081,0,0,0-.247,1.6,5.8,5.8,0,0,0,.21,1.591,3.607,3.607,0,0,0,.642,1.286,3.013,3.013,0,0,0,1.106.859,3.762,3.762,0,0,0,1.6.314,3.889,3.889,0,0,0,1.285-.194,2.9,2.9,0,0,0,.957-.546,3.129,3.129,0,0,0,.672-.822,4.806,4.806,0,0,0,.434-1.023h-1a2.221,2.221,0,0,1-.837,1.314,2.464,2.464,0,0,1-1.509.464,2.512,2.512,0,0,1-1.136-.246,2.381,2.381,0,0,1-.815-.658,2.886,2.886,0,0,1-.486-.971,4.228,4.228,0,0,1-.164-1.189h6.008a4.838,4.838,0,0,0-.9-3.192m-5.112,2.445a4,4,0,0,1,.254-1.046,2.994,2.994,0,0,1,.516-.868,2.411,2.411,0,0,1,.777-.6,2.352,2.352,0,0,1,1.054-.225,2.471,2.471,0,0,1,1.061.217,2.22,2.22,0,0,1,.77.583,2.519,2.519,0,0,1,.463.866,3.55,3.55,0,0,1,.157,1.07Z" transform="translate(-294.008)" fill="#303030"/>
    <path id="Path_142" data-name="Path 142" d="M446.984,224.382a5.87,5.87,0,0,0-1.2-.381q-.642-.135-1.2-.307a2.989,2.989,0,0,1-.92-.448.941.941,0,0,1-.366-.8,1.186,1.186,0,0,1,.449-.964,2.012,2.012,0,0,1,1.3-.366,2.531,2.531,0,0,1,1.412.366,1.674,1.674,0,0,1,.68,1.263h.912a2.563,2.563,0,0,0-.949-1.875,3.428,3.428,0,0,0-2.04-.561,2.961,2.961,0,0,0-2.01.62,2.017,2.017,0,0,0-.711,1.592,1.733,1.733,0,0,0,.367,1.181,2.4,2.4,0,0,0,.919.643,5.877,5.877,0,0,0,1.2.336,11.78,11.78,0,0,1,1.2.269,2.787,2.787,0,0,1,.92.433.992.992,0,0,1,.366.845,1.247,1.247,0,0,1-.12.538,1.391,1.391,0,0,1-.351.456,1.712,1.712,0,0,1-.59.321,2.7,2.7,0,0,1-.852.12,2.556,2.556,0,0,1-1.562-.411,2.272,2.272,0,0,1-.755-1.413h-.912a2.964,2.964,0,0,0,.239,1.032,2.6,2.6,0,0,0,.583.837,2.642,2.642,0,0,0,.9.56,3.405,3.405,0,0,0,1.219.2,5.308,5.308,0,0,0,1.263-.142,3.079,3.079,0,0,0,.994-.426,2.072,2.072,0,0,0,.657-.71,1.961,1.961,0,0,0,.239-.979,1.714,1.714,0,0,0-.366-1.166,2.607,2.607,0,0,0-.919-.665" transform="translate(-294.008)" fill="#303030"/>
    <path id="Path_143" data-name="Path 143" d="M457.312,221.5a3.23,3.23,0,0,0-1.121-.866,3.626,3.626,0,0,0-1.584-.322,3.589,3.589,0,0,0-1.569.322,3.171,3.171,0,0,0-1.121.874,3.747,3.747,0,0,0-.673,1.293,5.446,5.446,0,0,0-.224,1.592,5.068,5.068,0,0,0,.284,1.778,3.672,3.672,0,0,0,.769,1.271,3.14,3.14,0,0,0,1.136.762,4.046,4.046,0,0,0,1.4.269,3.632,3.632,0,0,0,1.472-.291,3.2,3.2,0,0,0,1.136-.83,3.763,3.763,0,0,0,.725-1.285,5.2,5.2,0,0,0,.254-1.674,5.7,5.7,0,0,0-.217-1.6,3.574,3.574,0,0,0-.665-1.293m-.224,4.1a3.332,3.332,0,0,1-.463,1.047,2.336,2.336,0,0,1-.815.739,2.447,2.447,0,0,1-1.2.277,2.578,2.578,0,0,1-1.136-.239,2.251,2.251,0,0,1-.822-.673,3.1,3.1,0,0,1-.5-1.038,4.857,4.857,0,0,1-.172-1.323,4.92,4.92,0,0,1,.15-1.218,3.213,3.213,0,0,1,.463-1.047,2.347,2.347,0,0,1,.815-.732,2.442,2.442,0,0,1,1.2-.277,2.616,2.616,0,0,1,1.211.255,2.241,2.241,0,0,1,.807.694,3.071,3.071,0,0,1,.463,1.039,5.323,5.323,0,0,1,.15,1.286,4.88,4.88,0,0,1-.15,1.21" transform="translate(-294.008)" fill="#303030"/>
    <path id="Path_144" data-name="Path 144" d="M467.738,221.483a2.979,2.979,0,0,0-1.084-.86,3.7,3.7,0,0,0-1.6-.314,2.914,2.914,0,0,0-.763.1,3.588,3.588,0,0,0-.754.3,2.89,2.89,0,0,0-.673.493,2.647,2.647,0,0,0-.5.673h-.029v-1.361h-.9V231.31h.9v-4.29a2.767,2.767,0,0,0,1.188,1.084,3.568,3.568,0,0,0,1.577.366,3.3,3.3,0,0,0,1.532-.336,3.145,3.145,0,0,0,1.076-.9,3.868,3.868,0,0,0,.635-1.308,5.753,5.753,0,0,0,.209-1.554,6.372,6.372,0,0,0-.194-1.6,3.5,3.5,0,0,0-.62-1.292m-.262,4.035a3.274,3.274,0,0,1-.478,1.114,2.367,2.367,0,0,1-.845.754,2.5,2.5,0,0,1-1.2.277,2.274,2.274,0,0,1-1.1-.262,2.53,2.53,0,0,1-.821-.7,3.209,3.209,0,0,1-.516-1.031,4.262,4.262,0,0,1-.179-1.249,4.786,4.786,0,0,1,.171-1.307,3.21,3.21,0,0,1,.5-1.047,2.359,2.359,0,0,1,.822-.694,2.4,2.4,0,0,1,1.121-.255,2.672,2.672,0,0,1,1.046.2,2.389,2.389,0,0,1,.837.591,2.746,2.746,0,0,1,.561.949,3.814,3.814,0,0,1,.2,1.292,5.077,5.077,0,0,1-.12,1.368" transform="translate(-294.008)" fill="#303030"/>
    <path id="Path_145" data-name="Path 145" d="M477.714,221.415a2.271,2.271,0,0,0-1.031-.859,3.522,3.522,0,0,0-1.331-.247,2.551,2.551,0,0,0-1.382.359,5.709,5.709,0,0,0-1.114.926v-4.1h-.9V228.26h.9v-4.17q0-.4.03-.747a2.84,2.84,0,0,1,.165-.717,2.192,2.192,0,0,1,.3-.568,2.272,2.272,0,0,1,.471-.479,2.424,2.424,0,0,1,.621-.336,2.2,2.2,0,0,1,.762-.127,1.974,1.974,0,0,1,1.54.523,2.311,2.311,0,0,1,.463,1.569v5.052h.9v-5.066a7.8,7.8,0,0,0-.052-.92,1.934,1.934,0,0,0-.336-.859" transform="translate(-294.008)" fill="#303030"/>
    <path id="Path_146" data-name="Path 146" d="M486.921,220.519l-2.481,6.65-2.481-6.65h-1l3.005,7.791a3.219,3.219,0,0,0-.24.618,4.818,4.818,0,0,1-.261.7,2.04,2.04,0,0,1-.4.575.832.832,0,0,1-.613.238,2.512,2.512,0,0,1-.381-.029l-.366-.06v.852a3.7,3.7,0,0,0,.4.074,3.311,3.311,0,0,0,.456.031,1.44,1.44,0,0,0,.8-.218,2.186,2.186,0,0,0,.613-.627,5.866,5.866,0,0,0,.523-1q.248-.582.516-1.315l2.885-7.637Z" transform="translate(-294.008)" fill="#303030"/>
    <path id="Path_147" data-name="Path 147" d="M407.47,140.461a5.617,5.617,0,0,1,4.465,1.721,7.472,7.472,0,0,1,1.381,2.87h5.523a9.474,9.474,0,0,0-1.829-4.932q-3.084-4.374-9.755-4.375a11.06,11.06,0,0,0-8.213,3.264q-3.713,3.747-3.713,10.669,0,6.4,3.263,10.078a11.406,11.406,0,0,0,8.968,3.659,10.774,10.774,0,0,0,7.567-2.708,11.881,11.881,0,0,0,3.658-7.03h-5.469a8.268,8.268,0,0,1-1.4,3.067,5.344,5.344,0,0,1-4.429,1.9,5.809,5.809,0,0,1-4.672-2.215q-1.838-2.214-1.838-6.662a11.685,11.685,0,0,1,1.739-6.877,5.538,5.538,0,0,1,4.753-2.43" transform="translate(-294.008)" fill="#303030"/>
    <path id="Path_148" data-name="Path 148" d="M429.9,142.505q-5.04,0-7.514,3.1a12.144,12.144,0,0,0,0,14.695q2.475,3.059,7.514,3.058t7.514-3.058a12.148,12.148,0,0,0,0-14.695q-2.475-3.1-7.514-3.1m3.425,14.974a4.521,4.521,0,0,1-6.895,0,9.094,9.094,0,0,1,0-9.065,4.538,4.538,0,0,1,6.895,0,9.153,9.153,0,0,1,0,9.065" transform="translate(-294.008)" fill="#303030"/>
    <path id="Path_149" data-name="Path 149" d="M448.914,143.85a8.678,8.678,0,0,0-1.865,2.17v-2.851h-4.931v19.51h5.092V152.1a7.557,7.557,0,0,1,.5-2.977,3.555,3.555,0,0,1,3.567-2.2,2.9,2.9,0,0,1,2.869,1.506,5.424,5.424,0,0,1,.413,2.367v11.889H459.8V149.517q0-3.677-1.928-5.263a7.537,7.537,0,0,0-4.958-1.587,6.481,6.481,0,0,0-4,1.183" transform="translate(-294.008)" fill="#303030"/>
    <path id="Path_150" data-name="Path 150" d="M471.1,163.361a8.19,8.19,0,0,0,7.118-3.354A8.551,8.551,0,0,0,479.9,155.6h-5.218a4.825,4.825,0,0,1-.915,2.511,3.037,3.037,0,0,1-2.546.968,3.411,3.411,0,0,1-3.444-2.439,9.871,9.871,0,0,1-.5-3.461,10.741,10.741,0,0,1,.5-3.622,3.519,3.519,0,0,1,3.533-2.565,3.084,3.084,0,0,1,2.672,1.184,4.538,4.538,0,0,1,.735,1.973h5.237q-.431-4.179-2.771-5.828a10.206,10.206,0,0,0-6.016-1.65,8.551,8.551,0,0,0-6.779,2.8q-2.457,2.8-2.457,7.837a11.32,11.32,0,0,0,2.224,7.262q2.223,2.8,6.94,2.8" transform="translate(-294.008)" fill="#303030"/>
    <path id="Path_151" data-name="Path 151" d="M487.1,153.337a7.806,7.806,0,0,1,.592-3.479q1.058-2.007,4.142-2.008c.155,0,.359.006.61.018s.538.036.861.071V142.7c-.228-.012-.374-.021-.44-.027s-.146-.009-.242-.009a5.616,5.616,0,0,0-3.73,1.2,10.8,10.8,0,0,0-2.062,2.672v-3.408h-4.878V162.68H487.1Z" transform="translate(-294.008)" fill="#303030"/>
    <path id="Path_152" data-name="Path 152" d="M496.135,160.922a9.911,9.911,0,0,0,6.581,2.4,8.874,8.874,0,0,0,7.03-2.851,6.49,6.49,0,0,0,1.811-3.533h-5.219a4.254,4.254,0,0,1-.95,1.345,3.665,3.665,0,0,1-2.564.9,4.351,4.351,0,0,1-2.547-.735q-1.74-1.185-1.847-4.125h13.378a25.946,25.946,0,0,0-.162-3.873,9.843,9.843,0,0,0-1.488-4.035,7.694,7.694,0,0,0-3.228-2.887,10.24,10.24,0,0,0-4.393-.915,8.8,8.8,0,0,0-6.68,2.708q-2.574,2.708-2.574,7.783,0,5.415,2.852,7.818m3.649-12.983a3.471,3.471,0,0,1,2.753-1.112,3.815,3.815,0,0,1,2.734,1.049,4.45,4.45,0,0,1,1.229,3.076h-7.944a5.547,5.547,0,0,1,1.228-3.013" transform="translate(-294.008)" fill="#303030"/>
    <path id="Path_153" data-name="Path 153" d="M514.5,158.986a3.738,3.738,0,0,0,.861,2.708q1.326,1.382,4.949,1.254l2.421-.089V159.04c-.168.012-.338.021-.511.027s-.338.009-.493.009a3.358,3.358,0,0,1-1.865-.3,2.326,2.326,0,0,1-.3-1.5V146.953h3.174v-3.64h-3.174v-5.452H514.5v5.452h-2.726v3.64H514.5Z" transform="translate(-294.008)" fill="#303030"/>
    <path id="Path_154" data-name="Path 154" d="M541.364,150.45a9.869,9.869,0,0,0-1.489-4.035,7.7,7.7,0,0,0-3.228-2.887,10.237,10.237,0,0,0-4.393-.915,8.8,8.8,0,0,0-6.68,2.708Q523,148.03,523,153.1q0,5.416,2.851,7.818a9.909,9.909,0,0,0,6.581,2.4,8.874,8.874,0,0,0,7.03-2.852,6.484,6.484,0,0,0,1.811-3.532h-5.218a4.266,4.266,0,0,1-.951,1.344,3.657,3.657,0,0,1-2.564.9,4.353,4.353,0,0,1-2.547-.735q-1.738-1.184-1.847-4.125h13.378a26.131,26.131,0,0,0-.161-3.873m-13.091.5a5.555,5.555,0,0,1,1.228-3.013,3.473,3.473,0,0,1,2.753-1.112,3.814,3.814,0,0,1,2.735,1.05,4.449,4.449,0,0,1,1.228,3.075Z" transform="translate(-294.008)" fill="#303030"/>
    <path id="Path_155" data-name="Path 155" d="M403.273,128.943h5.559V107.191h7.908V102.51H395.329v4.681h7.944Z" transform="translate(-294.008)" fill="#303030"/>
    <path id="Path_156" data-name="Path 156" d="M423.216,118.363a6.2,6.2,0,0,1,1.049-3.864,3.651,3.651,0,0,1,3.075-1.354,2.7,2.7,0,0,1,2.655,1.363,5.234,5.234,0,0,1,.537,2.546v11.889h5.219V117.467a27.81,27.81,0,0,0-.179-3.775,5.11,5.11,0,0,0-.987-2.251,5.756,5.756,0,0,0-2.43-1.919,8.349,8.349,0,0,0-3.29-.627,7.282,7.282,0,0,0-3.076.672,6.276,6.276,0,0,0-2.573,2.376V102.6h-5.093v26.343h5.093Z" transform="translate(-294.008)" fill="#303030"/>
    <path id="Path_157" data-name="Path 157" d="M440.361,127.186a9.911,9.911,0,0,0,6.581,2.4,8.874,8.874,0,0,0,7.03-2.851,6.49,6.49,0,0,0,1.811-3.533h-5.219a4.254,4.254,0,0,1-.95,1.345,3.666,3.666,0,0,1-2.564.9,4.344,4.344,0,0,1-2.547-.736q-1.74-1.184-1.847-4.124h13.378a25.969,25.969,0,0,0-.162-3.874,9.845,9.845,0,0,0-1.488-4.034,7.694,7.694,0,0,0-3.228-2.887,10.24,10.24,0,0,0-4.393-.915,8.8,8.8,0,0,0-6.68,2.708q-2.574,2.708-2.574,7.783,0,5.415,2.852,7.818M444.01,114.2a3.471,3.471,0,0,1,2.753-1.112,3.815,3.815,0,0,1,2.734,1.049,4.448,4.448,0,0,1,1.229,3.076h-7.944a5.544,5.544,0,0,1,1.228-3.013" transform="translate(-294.008)" fill="#303030"/>
    <path id="Path_158" data-name="Path 158" d="M414.642,185a11.775,11.775,0,0,0-4.519-1.919l-4.555-1.094a15.34,15.34,0,0,1-3.443-1.094,2.273,2.273,0,0,1-1.255-2.116,2.741,2.741,0,0,1,1.273-2.4,6,6,0,0,1,3.407-.86,6.982,6.982,0,0,1,3.21.663,3.794,3.794,0,0,1,2.08,3.389h5.308a7.912,7.912,0,0,0-3.093-6.429,11.535,11.535,0,0,0-7.128-2.214q-5,0-7.586,2.349a7.641,7.641,0,0,0-2.582,5.9,6.443,6.443,0,0,0,2.672,5.72,17.666,17.666,0,0,0,5.7,2.027l2.8.627a12.32,12.32,0,0,1,3.6,1.238,2.262,2.262,0,0,1,1.148,2.026,3.066,3.066,0,0,1-2.313,3.066,9.723,9.723,0,0,1-3.174.431q-3.264,0-4.609-1.632a5.416,5.416,0,0,1-.985-2.708h-5.273a7.835,7.835,0,0,0,2.959,6.483q2.958,2.358,8.123,2.358,5.058,0,7.828-2.394a7.617,7.617,0,0,0,2.77-6.017,6.461,6.461,0,0,0-2.367-5.4" transform="translate(-294.008)" fill="#303030"/>
    <path id="Path_159" data-name="Path 159" d="M435.589,180.676a7.688,7.688,0,0,0-5.81-2.528,6.455,6.455,0,0,0-4.053,1.309,8.187,8.187,0,0,0-1.757,2.008v-2.887h-4.9v27.24h5.057V195.632a7.5,7.5,0,0,0,1.65,1.883,6.241,6.241,0,0,0,3.873,1.166,7.52,7.52,0,0,0,5.981-2.708q2.322-2.708,2.322-7.873,0-4.895-2.367-7.424m-4.026,12.069a3.69,3.69,0,0,1-3.255,1.65,4.123,4.123,0,0,1-2.546-.807q-1.812-1.381-1.811-4.788a9.992,9.992,0,0,1,.538-3.551,3.8,3.8,0,0,1,3.819-2.636,3.592,3.592,0,0,1,3.345,1.739,8.72,8.72,0,0,1-.09,8.393" transform="translate(-294.008)" fill="#303030"/>
    <path id="Path_160" data-name="Path 160" d="M456.482,195.748a12.148,12.148,0,0,0,0-14.7q-2.475-3.1-7.514-3.1t-7.514,3.1a12.144,12.144,0,0,0,0,14.7q2.475,3.059,7.514,3.058t7.514-3.058m-4.089-2.824a4.521,4.521,0,0,1-6.9,0,9.088,9.088,0,0,1,0-9.065,4.538,4.538,0,0,1,6.9,0,9.153,9.153,0,0,1,0,9.065" transform="translate(-294.008)" fill="#303030"/>
    <path id="Path_161" data-name="Path 161" d="M467.673,198.393l2.421-.09v-3.819c-.168.012-.338.021-.511.027s-.338.008-.493.008a3.362,3.362,0,0,1-1.865-.295,2.323,2.323,0,0,1-.3-1.5V182.4h3.174v-3.64H466.92V173.3h-5.057v5.452h-2.726v3.64h2.726V194.43a3.738,3.738,0,0,0,.861,2.708q1.326,1.382,4.949,1.255" transform="translate(-294.008)" fill="#303030"/>
    <rect id="Rectangle_99" data-name="Rectangle 99" width="5.111" height="26.433" transform="translate(178.006 171.692)" fill="#303030"/>
    <rect id="Rectangle_100" data-name="Rectangle 100" width="5.182" height="4.716" transform="translate(186.706 171.53)" fill="#303030"/>
    <rect id="Rectangle_101" data-name="Rectangle 101" width="5.182" height="19.546" transform="translate(186.706 178.578)" fill="#303030"/>
    <path id="Path_162" data-name="Path 162" d="M505.766,202.822a10.381,10.381,0,0,0,1.274-5.7V178.578h-4.968v2.815a6.143,6.143,0,0,0-3.012-2.833,6.737,6.737,0,0,0-2.565-.449,7.171,7.171,0,0,0-6.151,2.968,12.083,12.083,0,0,0-2.17,7.326,10.7,10.7,0,0,0,2.251,7.164,7.5,7.5,0,0,0,6.016,2.645,6.345,6.345,0,0,0,3.963-1.166,6.237,6.237,0,0,0,1.579-1.883v1.255a9.366,9.366,0,0,1-.61,3.982q-.933,1.847-3.694,1.847a4.322,4.322,0,0,1-2.78-.7,2.3,2.3,0,0,1-.7-1.291h-5.559a5.426,5.426,0,0,0,2.618,4.394,11.437,11.437,0,0,0,6.115,1.47q6.2,0,8.392-3.3M500.8,192.574a3.947,3.947,0,0,1-3.031,1.354,3.741,3.741,0,0,1-3.73-2.475,7.574,7.574,0,0,1-.573-3.03A8.964,8.964,0,0,1,494,185.1a3.707,3.707,0,0,1,3.712-2.528,3.84,3.84,0,0,1,3.147,1.452,6.6,6.6,0,0,1,1.174,4.232,6.269,6.269,0,0,1-1.237,4.313" transform="translate(-294.008)" fill="#303030"/>
    <path id="Path_163" data-name="Path 163" d="M526.838,180.622a5.762,5.762,0,0,0-2.43-1.919,8.35,8.35,0,0,0-3.29-.627,7.278,7.278,0,0,0-3.076.672,6.264,6.264,0,0,0-2.573,2.376v-9.343h-5.093v26.343h5.093v-10.58a6.19,6.19,0,0,1,1.049-3.864,3.651,3.651,0,0,1,3.075-1.354,2.7,2.7,0,0,1,2.654,1.363,5.222,5.222,0,0,1,.538,2.546v11.889H528V186.647a27.6,27.6,0,0,0-.18-3.774,5.087,5.087,0,0,0-.986-2.251" transform="translate(-294.008)" fill="#303030"/>
    <path id="Path_164" data-name="Path 164" d="M537.079,173.306h-5.057v5.451H529.3V182.4h2.726v12.033a3.734,3.734,0,0,0,.861,2.707q1.326,1.382,4.949,1.256l2.421-.09v-3.82q-.252.018-.511.027c-.173.006-.338.009-.493.009a3.359,3.359,0,0,1-1.865-.3,2.319,2.319,0,0,1-.3-1.5V182.4h3.174v-3.641h-3.174Z" transform="translate(-294.008)" fill="#303030"/>
    <path id="Path_165" data-name="Path 165" d="M544.151,174.441V173.2h4.554v1.237h-1.536v3.921h-1.5v-3.921Zm8.669,3.921h-1.167l-1.12-3.74v3.74h-1.369V173.2H551.3l.938,2.968.925-2.968h2.141v5.158h-1.37v-3.74Z" transform="translate(-294.008)" fill="#303030"/>
  </g>
</svg>
