<svg xmlns="http://www.w3.org/2000/svg" width="24.501" height="24.499" viewBox="0 0 24.501 24.499">
  <path id="podcast" d="M1866.658,1177.573a7.69,7.69,0,0,0-.259-1.629.172.172,0,0,0-.009-.022,4.466,4.466,0,0,0-.846-1.672,5.108,5.108,0,0,0-3.187-1.931c-.288-.053-.581-.071-.872-.1l-.643-.072h-12.776c-.12.016-.239.041-.36.047a6.461,6.461,0,0,0-1.94.336,5.065,5.065,0,0,0-3.217,3.282c-.015.045-.022.093-.033.139-.008.022-.018.044-.024.067a6.862,6.862,0,0,0-.238,1.394c-.02.318-.031.637-.046.956v7.727c0,.21,0,.421,0,.632q0,1.108,0,2.216c0,.27-.009.541,0,.811q.018.855.048,1.711a2.719,2.719,0,0,0,.05.325c.007.058.012.117.02.175a5.855,5.855,0,0,0,.381,1.456,3.983,3.983,0,0,0,.549.958,4.415,4.415,0,0,0,.927,1,4.97,4.97,0,0,0,1.977,1,8.648,8.648,0,0,0,.948.167,9.193,9.193,0,0,0,1.107.093q5.7.01,11.4,0a14.39,14.39,0,0,0,2.246-.1,8.981,8.981,0,0,0,1.054-.213,5.068,5.068,0,0,0,2.488-1.619c.092-.107.172-.224.258-.337.031-.041.064-.08.093-.122a5.42,5.42,0,0,0,.853-2.437c.027-.281.053-.561.08-.842a.385.385,0,0,1,.023-.074v-12.99a3.308,3.308,0,0,1-.046-.334m-10.284,12.4c-.024.214-.047.428-.075.642-.025.2-.056.389-.083.584s-.054.389-.081.583c-.083.385-.156.772-.251,1.154a1.02,1.02,0,0,1-.525.638,1.72,1.72,0,0,1-.783.218,1.856,1.856,0,0,1-.947-.175,1.129,1.129,0,0,1-.641-.81c-.069-.342-.142-.684-.213-1.026a.36.36,0,0,1-.017-.056c-.032-.232-.064-.464-.1-.7s-.064-.447-.095-.672c-.023-.172-.043-.344-.065-.515-.57,0-1.14,0-1.71,0,.57,0,1.14,0,1.71,0-.01-.078-.025-.155-.031-.234-.035-.376-.068-.753-.1-1.129a.666.666,0,0,1-.019-.1c-.009-.361-.021-.722-.021-1.083a3.233,3.233,0,0,1,.037-.47,1.1,1.1,0,0,1,.341-.631,2.025,2.025,0,0,1,1.054-.526,5.149,5.149,0,0,1,.877-.055,1.6,1.6,0,0,1,1.871,1.131,3.014,3.014,0,0,1,.073.645c0,.32-.024.641-.045.961-.017.26-.044.518-.067.777q1.366,0,2.733,0-1.367,0-2.733,0c-.031.282-.062.564-.094.847m-7.689-6.684a5.815,5.815,0,0,1,.641-2.439c.014-.028.025-.058.037-.087.248-.354.48-.721.747-1.06a5.241,5.241,0,0,1,1.074-.975,6.033,6.033,0,0,1,.974-.555c.187-.066.373-.136.562-.2a4.55,4.55,0,0,1,1.271-.238c.266-.007.532-.032.8-.021a5.447,5.447,0,0,1,1.78.385c.037.014.074.027.111.04.33.179.674.336.987.54a5.582,5.582,0,0,1,1.777,1.882c.016.027.036.052.054.078a5.474,5.474,0,0,1,.533,1.338c.072.326.112.659.165.989.014.09.021.181.031.272s0,.2-.006.3a5.776,5.776,0,0,1-.278,1.718c-.012.037-.021.076-.032.114a6.211,6.211,0,0,1-.722,1.4c-.048.068-.1.137-.143.206-.206.225-.4.463-.62.673s-.442.373-.67.55c-.044.034-.132.068-.163.047a.228.228,0,0,1-.073-.169c0-.313.009-.626.016-.939a.464.464,0,0,1,.146-.314c.159-.169.315-.342.472-.513a4.3,4.3,0,0,0,.824-1.711c.046-.2.076-.409.114-.614.01-.169.027-.337.028-.506a3.013,3.013,0,0,0-.026-.437c-.033-.237-.079-.472-.119-.708a4.305,4.305,0,0,0-.883-1.771,8.934,8.934,0,0,0-.63-.65,4.5,4.5,0,0,0-2.61-1.078,4.978,4.978,0,0,0-1.149.041,4.619,4.619,0,0,0-2.893,1.708,4.474,4.474,0,0,0-1.009,2.679,4.151,4.151,0,0,0,.214,1.634,4.257,4.257,0,0,0,.656,1.289c.186.221.364.45.563.659a.516.516,0,0,1,.153.406c-.01.278.005.557,0,.835a.213.213,0,0,1-.07.156c-.032.021-.116,0-.156-.036a9.267,9.267,0,0,1-.807-.667,9.914,9.914,0,0,1-.645-.779,6.54,6.54,0,0,1-.757-1.532c-.056-.234-.114-.467-.168-.7a4.546,4.546,0,0,1-.1-1.165.7.7,0,0,0,0-.071m7.7.015a5.855,5.855,0,0,1-.3.654,2.1,2.1,0,0,1-1.072.739,2.011,2.011,0,0,1-2.471-1.334c-.01-.034-.024-.067-.036-.1a2.214,2.214,0,0,1,0-.987,2.018,2.018,0,0,1,3.37-.929,2.069,2.069,0,0,1,.557,1.024,2.042,2.042,0,0,1-.047.935m6.658.982c-.029.293-.088.583-.133.875a7.943,7.943,0,0,1-.4,1.426c.06,0,.119,0,.179,0-.06,0-.119,0-.179,0a8.5,8.5,0,0,1-1.014,1.864c-.22.3-.462.579-.693.868-.375.338-.734.7-1.129,1.01a7.853,7.853,0,0,1-2.286,1.244c-.055.019-.151.03-.176,0a.275.275,0,0,1-.031-.19c.028-.246.075-.492.1-.739a.338.338,0,0,1,.223-.3,7.3,7.3,0,0,0,1.322-.761c.176-.129.342-.271.513-.408.022-.016.045-.032.066-.05a6.293,6.293,0,0,0,1-1.083c.245-.333.454-.693.679-1.041a6.544,6.544,0,0,0,.632-1.588c.069-.391.153-.779.2-1.173.039-.329.034-.664.048-1-.01-.193-.012-.387-.033-.579-.026-.23-.062-.459-.107-.686a6.231,6.231,0,0,0-.447-1.428.465.465,0,0,0-.016-.057,7.486,7.486,0,0,0-1.648-2.391.479.479,0,0,0-.088-.055c-.074-.078-.142-.161-.222-.231a7.437,7.437,0,0,0-4.48-1.844,7.43,7.43,0,0,0-4.055.906,7.1,7.1,0,0,0-1.684,1.267c-.145.153-.3.3-.433.46a7.224,7.224,0,0,0-1.277,2.127,6.456,6.456,0,0,0-.433,1.59c-.042.321-.055.646-.082.97.01.315,0,.633.034.946.037.342.115.681.175,1.021a6.439,6.439,0,0,0,.56,1.527c.118.218.228.441.355.653a5.962,5.962,0,0,0,.842,1.1c.147.151.288.307.442.451a6.506,6.506,0,0,0,1.189.893c.294.157.586.316.881.47a.322.322,0,0,1,.2.287c0,.082.022.163.034.245.028.2.062.39.081.586.012.123-.055.165-.173.124-.093-.032-.186-.066-.277-.1a8.817,8.817,0,0,1-1.852-1.01,9.111,9.111,0,0,1-1.672-1.564c-.192-.267-.392-.527-.573-.8a8.507,8.507,0,0,1-.963-2.027c-.092-.381-.2-.759-.271-1.144-.065-.363-.09-.734-.122-1.1-.016-.174-.007-.349-.01-.524s.009-.34.03-.508c.051-.391.1-.783.174-1.168.06-.305.16-.6.243-.9l.121-.323a9,9,0,0,1,1.079-2c.028-.034.056-.067.082-.1a8.727,8.727,0,0,1,1.985-1.925c.209-.144.425-.276.637-.413.228-.112.454-.227.684-.335a8.136,8.136,0,0,1,2.158-.668,8.417,8.417,0,0,1,1.994-.1,8.656,8.656,0,0,1,3.6,1.06c.017.01.036.017.054.025s.066-.013.1-.02l-.1.02c.4.279.817.546,1.21.841a7.512,7.512,0,0,1,1.335,1.339c.017.022.037.041.056.061a9.582,9.582,0,0,1,.921,1.484c.138.291.257.59.386.885.09.3.2.6.264.914.087.43.139.868.2,1.3.025.184.034.37.05.555-.016.316-.02.634-.051.949" transform="translate(-1842.203 -1172.142)" fill="#f3f1ec"/>
</svg>
