<svg xmlns="http://www.w3.org/2000/svg" width="24.451" height="24.437" viewBox="0 0 24.451 24.437">
  <path id="spotify" d="M1768.088,1183.869v.12c0,.009-.012.017-.012.025q0,.347,0,.694c0,.049-.009.1-.012.147-.012.179-.021.36-.037.539-.017.2-.034.406-.062.607a11.794,11.794,0,0,1-.356,1.67,12.265,12.265,0,0,1-6.318,7.561,12.357,12.357,0,0,1-4.389,1.231c-.2.018-.391.033-.587.035-.332,0-.665,0-1-.011-.142,0-.285-.013-.427-.025-.162-.013-.326-.024-.486-.049-.386-.06-.773-.113-1.155-.195a11.839,11.839,0,0,1-3.219-1.2,12.265,12.265,0,0,1-5.846-7.124,11.66,11.66,0,0,1-.464-2.218c-.034-.319-.068-.64-.079-.96s0-.637.009-.955c0-.138.012-.277.023-.415.014-.175.029-.35.05-.525q.04-.314.092-.627a11.788,11.788,0,0,1,.95-3.053,12.151,12.151,0,0,1,4.764-5.323,12,12,0,0,1,5.435-1.735c.175-.013.35-.018.525-.027h.72l.427.025c.14.008.28.013.42.027a12.133,12.133,0,0,1,6.113,2.368,12.185,12.185,0,0,1,3.677,4.433,11.881,11.881,0,0,1,1.026,3.1c.032.174.056.35.082.525.018.117.035.233.049.351.011.095.016.19.023.285.012.15.023.3.036.451.007.082.016.163.024.245m-4.407-.811.124-.015a1.14,1.14,0,0,0,1-1.332,1.086,1.086,0,0,0-.548-.788c-.3-.17-.6-.337-.9-.488a17.966,17.966,0,0,0-4.432-1.45c-.725-.146-1.457-.251-2.193-.327-.207-.021-.415-.042-.623-.057-.249-.019-.5-.034-.748-.048-.181-.01-.361-.022-.542-.021q-.753,0-1.506.01c-.206,0-.412.014-.619.023-.126.006-.253.014-.379.024-.192.015-.384.03-.575.048s-.371.037-.556.06c-.212.025-.422.051-.633.082a16.7,16.7,0,0,0-2.292.5,1.158,1.158,0,0,0-.839,1.122.992.992,0,0,0,.042.262,1.139,1.139,0,0,0,1.462.8,15.383,15.383,0,0,1,2.641-.522c.24-.028.481-.05.722-.071.176-.015.351-.026.528-.036s.368-.017.552-.024c.131-.005.263-.01.394-.009.251,0,.5,0,.753.009.189,0,.378,0,.566.012s.372.023.557.036c.206.014.413.026.619.044.154.013.308.034.462.052.241.029.482.054.723.089.258.037.516.081.772.128a17.8,17.8,0,0,1,2.4.606,12.664,12.664,0,0,1,2.483,1.107,1.274,1.274,0,0,0,.59.168m-.583,2.807a1.442,1.442,0,0,0-.011-.178.952.952,0,0,0-.465-.657,15.068,15.068,0,0,0-3.7-1.592,17.8,17.8,0,0,0-2.689-.551c-.3-.038-.6-.066-.9-.095-.164-.016-.329-.026-.494-.034-.218-.011-.436-.025-.654-.023-.416,0-.832.012-1.247.023-.2.005-.394.015-.59.031-.239.02-.476.048-.714.076-.2.023-.392.045-.587.075a16.891,16.891,0,0,0-2.109.474.973.973,0,0,0-.694,1.038.957.957,0,0,0,1.21.8,14.031,14.031,0,0,1,2.483-.5c.211-.024.422-.045.634-.059.266-.018.532-.036.8-.036q.7,0,1.4.023c.232.007.463.038.694.058.142.013.285.021.426.04.27.036.54.073.809.119a15.732,15.732,0,0,1,2.543.652,12.563,12.563,0,0,1,2.4,1.121.947.947,0,0,0,1.458-.8m-1.52,3.428a.747.747,0,0,0-.376-.662,12.513,12.513,0,0,0-2.494-1.168,13.565,13.565,0,0,0-2.844-.637c-.195-.022-.39-.042-.585-.058s-.373-.026-.56-.035c-.147-.007-.294-.013-.44-.013-.259,0-.517.007-.776.012-.117,0-.235.006-.351.012-.2.01-.4.022-.6.036s-.4.026-.6.051c-.358.044-.717.085-1.072.146-.508.089-1.014.191-1.519.3a.76.76,0,0,0,.282,1.494c.151-.027.3-.065.45-.1.579-.118,1.16-.227,1.748-.288.252-.026.5-.058.756-.082.169-.016.339-.027.509-.036.2-.01.394-.021.591-.02.306,0,.613.01.918.02.2.005.393.009.588.028.32.031.64.068.958.115a11.573,11.573,0,0,1,2.512.666,11.267,11.267,0,0,1,1.749.864.762.762,0,0,0,1.159-.644" transform="translate(-1743.637 -1172.062)" fill="#f3f1ec"/>
</svg>
